<svg width="48" height="48" viewBox="0 0 48 48" fill="none" xmlns="http://www.w3.org/2000/svg">
<path d="M20.536 42C20.8871 42.608 21.392 43.1129 22.0001 43.464C22.6081 43.815 23.2979 43.9998 24 43.9998C24.7021 43.9998 25.3919 43.815 25.9999 43.464C26.608 43.1129 27.1129 42.608 27.464 42M6.524 30.652C6.26273 30.9384 6.09031 31.2945 6.02771 31.677C5.96512 32.0596 6.01504 32.4521 6.17142 32.8068C6.32779 33.1615 6.58387 33.4631 6.90851 33.6749C7.23316 33.8868 7.61236 33.9997 8 34H40C40.3876 34.0001 40.7669 33.8876 41.0917 33.6762C41.4166 33.4648 41.673 33.1635 41.8298 32.809C41.9866 32.4546 42.037 32.0622 41.9749 31.6796C41.9128 31.297 41.7409 30.9407 41.48 30.654C38.82 27.912 36 24.998 36 16C36 12.8174 34.7357 9.76516 32.4853 7.51472C30.2349 5.26428 27.1826 4 24 4C20.8174 4 17.7652 5.26428 15.5147 7.51472C13.2643 9.76516 12 12.8174 12 16C12 24.998 9.178 27.912 6.524 30.652Z" stroke="currentColor" stroke-width="3" stroke-linecap="round" stroke-linejoin="round"/>
</svg>
