<svg width="48" height="48" viewBox="0 0 48 48" fill="none" xmlns="http://www.w3.org/2000/svg">
<path d="M22 22.62C24.34 23.74 25.08 26 29 26C34 26 34 22 39 22C41.6 22 42.8 23 44 24M23.5 36C24.2 37 26.4 38 29 38C34 38 34 34 39 34C41.6 34 42.8 35 44 36M4 20H12M4 28H12M4 36H12M4 12H12" stroke="currentColor" stroke-width="3" stroke-linecap="round" stroke-linejoin="round"/>
<path d="M14 6C13.4696 6 12.9609 6.21071 12.5858 6.58579C12.2107 6.96086 12 7.46957 12 8V40C12 40.5304 12.2107 41.0391 12.5858 41.4142C12.9609 41.7893 13.4696 42 14 42H22C22.5304 42 23.0391 41.7893 23.4142 41.4142C23.7893 41.0391 24 40.5304 24 40L20 8C20 7.46957 19.7893 6.96086 19.4142 6.58579C19.0391 6.21071 18.5304 6 18 6H14Z" stroke="currentColor" stroke-width="3" stroke-linecap="round" stroke-linejoin="round"/>
</svg>
