<svg width="48" height="48" viewBox="0 0 48 48" fill="none" xmlns="http://www.w3.org/2000/svg">
<path d="M24 4V14M29.658 31.996C29.9773 32.9009 30.075 33.8692 29.9428 34.8196C29.8105 35.7701 29.4522 36.6749 28.898 37.4583C28.3437 38.2416 27.6097 38.8806 26.7574 39.3216C25.9052 39.7626 24.9596 39.9928 24 39.9928C23.0404 39.9928 22.0948 39.7626 21.2426 39.3216C20.3903 38.8806 19.6563 38.2416 19.102 37.4583C18.5478 36.6749 18.1895 35.7701 18.0573 34.8196C17.925 33.8692 18.0227 32.9009 18.342 31.996" stroke="currentColor" stroke-width="3" stroke-linecap="round" stroke-linejoin="round"/>
<path d="M41.84 29.212C41.9705 29.5163 42.0233 29.8483 41.9938 30.1781C41.9643 30.508 41.8534 30.8253 41.671 31.1017C41.4886 31.378 41.2405 31.6048 40.9488 31.7616C40.6571 31.9184 40.3311 32.0003 40 32H7.99999C7.66886 32.0003 7.34284 31.9184 7.05119 31.7616C6.75953 31.6048 6.51137 31.378 6.32897 31.1017C6.14658 30.8253 6.03566 30.508 6.00616 30.1781C5.97667 29.8483 6.02953 29.5163 6.15999 29.212L12.16 15.212C12.3143 14.852 12.571 14.5452 12.898 14.3298C13.2251 14.1143 13.6083 13.9997 14 14H34C34.3917 13.9997 34.7748 14.1143 35.1019 14.3298C35.429 14.5452 35.6857 14.852 35.84 15.212L41.84 29.212Z" stroke="currentColor" stroke-width="3" stroke-linecap="round" stroke-linejoin="round"/>
</svg>
