<svg width="48" height="48" viewBox="0 0 48 48" fill="none" xmlns="http://www.w3.org/2000/svg">
<path d="M30 10L38 18M42.348 13.624C43.4054 12.5668 43.9996 11.1329 43.9998 9.63771C43.9999 8.14248 43.4061 6.70842 42.349 5.651C41.2918 4.59358 39.8579 3.99942 38.3627 3.99924C36.8675 3.99905 35.4334 4.59285 34.376 5.65L7.68399 32.348C7.21963 32.811 6.87622 33.3811 6.68399 34.008L4.04199 42.712C3.9903 42.885 3.9864 43.0687 4.03069 43.2437C4.07499 43.4187 4.16583 43.5785 4.29358 43.706C4.42134 43.8336 4.58123 43.9241 4.75631 43.9682C4.93138 44.0122 5.11511 44.008 5.28799 43.956L13.994 41.316C14.6203 41.1255 15.1903 40.7842 15.654 40.322L42.348 13.624Z" stroke="currentColor" stroke-width="3" stroke-linecap="round" stroke-linejoin="round"/>
</svg>
