<svg width="48" height="48" viewBox="0 0 48 48" fill="none" xmlns="http://www.w3.org/2000/svg">
<path d="M42 6H6C4.89543 6 4 6.89543 4 8V14C4 15.1046 4.89543 16 6 16H42C43.1046 16 44 15.1046 44 14V8C44 6.89543 43.1046 6 42 6Z" stroke="currentColor" stroke-width="3" stroke-linecap="round" stroke-linejoin="round"/>
<path d="M8 16V38C8 39.0609 8.42143 40.0783 9.17157 40.8284C9.92172 41.5786 10.9391 42 12 42H36C37.0609 42 38.0783 41.5786 38.8284 40.8284C39.5786 40.0783 40 39.0609 40 38V16M19 34L29 24M19 24L29 34" stroke="currentColor" stroke-width="3" stroke-linecap="round" stroke-linejoin="round"/>
</svg>
